<svg width="100" height="100" viewBox="0 0 100 100" fill="none" xmlns="http://www.w3.org/2000/svg">
<path d="M0 50C0 0 0 0 50 0C100 0 100 0 100 50C100 100 100 100 50 100C0 100 0 100 0 50Z" fill="url(#paint0_linear_892_3560)"/>
<path d="M70.5476 47.8867V52.1447C70.5476 59.8387 68.3716 65.8307 64.0206 70.1187C59.6996 74.3767 53.4246 76.4907 45.1936 76.4907H31.2866C34.9436 74.9137 36.7726 71.5077 36.7726 66.2727V58.3257C36.7726 56.1497 37.2456 54.6037 38.1926 53.6277C39.1706 52.6807 40.3056 52.1127 41.6606 51.8927V48.1097C40.3056 47.8877 39.1706 47.3217 38.1926 46.3747C37.2456 45.3967 36.7726 43.8527 36.7726 41.6767V33.7277C36.7726 28.4937 34.9436 25.0877 31.2866 23.5107H45.1926C53.5186 23.5107 59.8256 25.6237 64.1136 29.8497C68.4046 34.0417 70.5476 40.0657 70.5476 47.8867Z" fill="white"/>
<defs>
<linearGradient id="paint0_linear_892_3560" x1="50" y1="100.816" x2="50" y2="0.353105" gradientUnits="userSpaceOnUse">
<stop stop-color="#0062E0"/>
<stop offset="1" stop-color="#19AFFF"/>
</linearGradient>
</defs>
</svg>
