<svg width="22" height="27" viewBox="0 0 22 27" fill="none" xmlns="http://www.w3.org/2000/svg">
  <path d="M3.55558 1C4.23337 1 4.88339 1.26925 5.36265 1.74851L19.6999 16.0858C20.6635 17.0494 20.6635 18.6117 19.6999 19.5753C19.2372 20.038 18.6096 20.298 17.9552 20.298H16.6466C14.7461 20.298 13.6187 20.3903 12.5385 20.6215C11.4583 20.8528 10.501 21.2229 9.54613 21.7784C8.5913 22.334 7.69496 23.024 6.28876 24.3024L5.12725 25.3583C4.11891 26.275 2.55837 26.2007 1.64169 25.1923C1.22879 24.7381 1 24.1463 1 23.5325V3.55558C1 2.14417 2.14417 1 3.55558 1Z" fill="white" stroke="black" stroke-width="1.5"/>
</svg>
