<svg width="256" height="256" viewBox="0 0 256 256" fill="none" xmlns="http://www.w3.org/2000/svg">
  <path d="M59.0745 98.4555C59.0745 131.081 32.6268 196.433 -2.60378e-06 196.433L-2.58266e-06 196.916C26.113 196.916 51.1564 186.543 69.6214 168.078C88.0863 149.614 98.4604 124.571 98.4613 98.458C98.4613 82.7903 104.685 67.7638 115.764 56.6844C126.843 45.6051 141.869 39.3811 157.537 39.3811C173.205 39.3774 188.234 45.5989 199.314 56.6758C210.396 67.7527 216.623 82.778 216.626 98.4456C216.629 114.115 210.407 129.142 199.33 140.223C188.253 151.305 173.228 157.532 157.56 157.535C144.63 157.535 131.826 160.082 119.881 165.031C107.935 169.98 97.0808 177.232 87.938 186.376C78.7953 195.519 71.543 206.374 66.5952 218.32C61.6475 230.266 59.1011 243.07 59.1016 256L59.5809 256C59.5809 223.379 124.905 196.931 157.536 196.919L157.536 196.925C177.01 196.926 196.047 191.151 212.239 180.333C228.431 169.514 241.051 154.137 248.503 136.145C255.957 118.154 257.907 98.357 254.108 79.2567C250.31 60.1577 240.933 42.6131 227.164 28.842C213.394 15.0722 195.851 5.6937 176.751 1.89309C157.652 -1.90751 137.855 0.0420319 119.863 7.4931C101.871 14.9442 86.4924 27.5632 75.6722 43.754C64.852 59.946 59.076 78.9823 59.0745 98.4555Z" fill="url(#paint0_linear_71_10)"/>
  <defs>
    <linearGradient id="paint0_linear_71_10" x1="221.44" y1="51.9681" x2="17.152" y2="200.704" gradientUnits="userSpaceOnUse">
      <stop offset="0.75" stop-color="#E55807"/>
      <stop offset="0.828125" stop-color="#EA8000"/>
      <stop offset="1" stop-color="#E5C707"/>
    </linearGradient>
  </defs>
</svg>
