<svg
  width="101"
  height="100"
  viewBox="0 0 101 100"
  fill="none"
  xmlns="http://www.w3.org/2000/svg"
>
  <path
    d="M0.046875 50C0.046875 0 0.046875 0 50.0469 0C100.047 0 100.047 0 100.047 50C100.047 100 100.047 100 50.0469 100C0.046875 100 0.046875 100 0.046875 50Z"
    fill="#28334A"
  />
  <path
    d="M70.5939 47.887V52.145C70.5939 59.839 68.4179 65.831 64.0669 70.119C59.7459 74.377 53.4709 76.491 45.2399 76.491H31.3329C34.9899 74.914 36.8189 71.508 36.8189 66.273V58.326C36.8189 56.15 37.2919 54.604 38.2389 53.628C39.2169 52.681 40.3519 52.113 41.7069 51.893V48.11C40.3519 47.888 39.2169 47.322 38.2389 46.375C37.2919 45.397 36.8189 43.853 36.8189 41.677V33.728C36.8189 28.494 34.9899 25.088 31.3329 23.511H45.2389C53.5649 23.511 59.8719 25.624 64.1599 29.85C68.4509 34.042 70.5939 40.066 70.5939 47.887Z"
    fill="white"
  />
</svg>