<svg width="256" height="256" viewBox="0 0 256 256" fill="none" xmlns="http://www.w3.org/2000/svg">
<path d="M91.0899 239.8C94.7302 238.234 97.28 234.614 97.28 230.4V202.752C97.28 201.743 97.3619 200.694 97.4899 199.629C97.4182 199.649 97.3517 199.665 97.28 199.68C97.28 199.68 81.92 199.68 78.848 199.68C71.168 199.68 64.512 196.608 61.44 190.464C57.856 183.808 56.32 172.544 47.104 166.4C45.568 165.376 46.592 163.84 49.664 163.84C52.736 164.352 59.392 168.448 63.488 174.08C68.096 179.712 72.704 184.32 80.896 184.32C93.6294 184.32 100.454 183.68 104.561 181.478C109.343 174.367 115.963 168.96 122.88 168.96V168.832C93.8598 167.9 75.3203 158.254 66.688 143.36C47.9232 143.575 31.5853 145.434 22.2618 146.98C21.9648 145.306 21.7088 143.621 21.4886 141.926C30.6893 140.411 46.2848 138.614 64.215 138.271C63.6416 136.858 63.145 135.409 62.7251 133.924C44.7488 133.012 29.2352 133.724 20.8077 134.42C20.7053 132.721 20.567 131.026 20.5465 129.306C28.9894 128.614 44.0832 127.923 61.5987 128.737C61.1942 126.177 60.9331 123.561 60.9331 120.837C60.9331 112.133 64.0051 102.917 69.6371 95.2371C67.0771 86.5331 63.4931 68.1011 70.6611 61.4451C84.4851 61.4451 94.2131 68.1011 98.8211 72.1971C107.52 68.608 117.248 66.56 128 66.56C138.752 66.56 148.48 68.608 156.672 72.192C161.28 68.096 171.008 61.44 184.832 61.44C192.512 68.608 188.416 87.04 185.856 95.232C191.488 102.912 194.56 111.616 194.048 120.832C194.048 123.31 193.818 125.701 193.485 128.046C211.4 127.165 226.903 127.872 235.489 128.568C235.479 130.294 235.32 131.978 235.228 133.683C226.673 132.977 210.78 132.25 192.43 133.228C191.974 134.948 191.421 136.622 190.766 138.245C208.922 138.481 224.891 140.237 234.532 141.773C234.312 143.473 234.056 145.157 233.759 146.826C223.969 145.26 207.283 143.427 188.298 143.334C179.773 158.07 161.572 167.68 133.12 168.801V168.96C146.432 168.96 158.72 188.928 158.72 202.752V230.4C158.72 234.614 161.27 238.234 164.91 239.8C211.814 224.276 245.76 180.04 245.76 128C245.76 63.0681 192.937 10.24 128 10.24C63.063 10.24 10.24 63.0681 10.24 128C10.24 180.04 44.1856 224.276 91.0899 239.8Z" fill="#6A11CB"/>
</svg>
