<svg width="28" height="27" viewBox="0 0 28 27" fill="none" xmlns="http://www.w3.org/2000/svg">
  <path d="M1.69694 6.19214L2.19694 7.05816L2.2056 7.05316L8.08601 17.2383L6.67318 16.6297L6.66694 16.6271C5.17508 15.9963 3.44413 16.6692 2.80484 18.1814C2.17398 19.6735 2.85248 21.4113 4.36139 22.0509C4.36231 22.0513 4.36323 22.0517 4.36415 22.0521L9.71765 24.3498C9.71754 24.3497 9.71776 24.3498 9.71765 24.3498C12.4855 25.5415 15.6002 25.5133 18.3063 24.3048C18.5905 24.1972 18.8484 24.0594 19.0667 23.9334L22.6535 21.8625C26.1089 19.8676 27.2722 15.4373 25.2735 11.9754L22.5374 7.23635C21.6188 5.64529 19.5829 5.08434 17.9823 6.00849C17.69 6.17724 17.4298 6.38461 17.2073 6.6222C16.2068 6.02573 14.9247 5.97164 13.8403 6.59769C13.3994 6.85229 13.0436 7.19209 12.7754 7.58018C11.9119 7.29976 10.9387 7.37196 10.0887 7.86271C9.92662 7.95631 9.77527 8.06218 9.63512 8.17842L6.79049 3.25138C5.9758 1.8403 4.17653 1.35328 2.76838 2.16628C1.36012 2.97933 0.882262 4.78107 1.69694 6.19214Z" fill="white"/>
  <path d="M9.71765 24.3498L4.36415 22.0521C4.36323 22.0517 4.36231 22.0513 4.36139 22.0509C2.85248 21.4113 2.17398 19.6735 2.80484 18.1814C3.44413 16.6692 5.17508 15.9963 6.66694 16.6271L6.67318 16.6297L8.08601 17.2383L2.2056 7.05316L2.19694 7.05816L1.69694 6.19214C0.882262 4.78107 1.36012 2.97933 2.76838 2.16628C4.17653 1.35328 5.9758 1.8403 6.79049 3.25138L9.63512 8.17842C9.77527 8.06218 9.92662 7.95631 10.0887 7.86271C10.9387 7.37196 11.9119 7.29976 12.7754 7.58018C13.0436 7.19209 13.3994 6.85229 13.8403 6.59769C14.9247 5.97164 16.2068 6.02573 17.2073 6.6222C17.4298 6.38461 17.69 6.17724 17.9823 6.00849C19.5829 5.08434 21.6188 5.64529 22.5374 7.23635L25.2735 11.9754C27.2722 15.4373 26.1089 19.8676 22.6535 21.8625L19.0667 23.9334C18.8484 24.0594 18.5905 24.1972 18.3063 24.3048C15.6002 25.5133 12.4855 25.5415 9.71765 24.3498ZM9.71765 24.3498C9.71776 24.3498 9.71754 24.3497 9.71765 24.3498Z" stroke="black" stroke-width="2"/>
</svg>
