<svg width="100" height="100" viewBox="0 0 100 100" fill="none" xmlns="http://www.w3.org/2000/svg">
  <path d="M5.93298 52.9655C5.93298 5.93202 5.93298 5.93201 52.9665 5.93201C100 5.93201 100 5.93202 100 52.9655C100 99.9991 99.9991 99.999 52.9656 99.999C5.93204 99.999 5.93298 99.9991 5.93298 52.9655Z" fill="#F4364C"/>
  <path d="M0 47.0335C0 -1.07962e-05 0 0 47.0335 0C94.067 0 94.067 -1.07962e-05 94.067 47.0335C94.067 94.067 94.067 94.067 47.0335 94.067C0 94.067 0 94.0661 0 47.0335Z" fill="#19AFFF"/>
  <path d="M52.9655 5.93298C5.93201 5.93298 5.93201 5.93297 5.93201 52.9665C5.93201 72.5644 5.93201 83.9955 9.33481 90.6643C16.0036 94.0671 27.4346 94.0671 47.0326 94.0671C94.0661 94.0671 94.0661 94.067 94.0661 47.0335C94.0661 27.4356 94.0661 16.0046 90.6633 9.33578C83.9954 5.93298 72.5635 5.93298 52.9655 5.93298Z" fill="#28334A"/>
  <path d="M69.3239 48.0118V52.0164C69.3239 59.2541 67.2776 64.8899 63.1843 68.9238C59.1202 72.9285 53.2174 74.9172 45.4741 74.9172H32.3931C35.8336 73.4342 37.5543 70.2304 37.5543 65.305V57.8296C37.5543 55.7834 37.9987 54.3287 38.8902 53.4108C39.81 52.5202 40.8779 51.9853 42.1524 51.7787V48.2203C40.8779 48.0118 39.81 47.4787 38.8902 46.5882C37.9996 45.6684 37.5543 44.2156 37.5543 42.1694V34.6921C37.5543 29.7685 35.8336 26.5648 32.3931 25.0818H45.4741C53.3061 25.0818 59.239 27.0695 63.273 31.0449C67.3078 34.9883 69.3239 40.6552 69.3239 48.0118Z" fill="white"/>
</svg>
