<?xml version="1.0" encoding="utf-8"?>
<!-- Generator: Adobe Illustrator 23.0.3, SVG Export Plug-In . SVG Version: 6.00 Build 0)  -->
<svg version="1.1" id="Слой_1" xmlns="http://www.w3.org/2000/svg" xmlns:xlink="http://www.w3.org/1999/xlink" x="0px" y="0px"
	 viewBox="0 0 397.361 100" enable-background="new 0 0 397.361 100" xml:space="preserve">
<g>
	<g>
		<path fill="#FFFFFF" d="M143.743,23.511h17.409c8.324,0,14.632,2.107,18.92,6.319c4.288,4.214,6.433,10.231,6.433,18.051v4.238
			c0,7.72-2.169,13.711-6.509,17.976c-4.34,4.264-10.622,6.394-18.844,6.394h-17.409V23.511z M152.826,31.533v36.934h8.326
			c5.246,0,9.195-1.337,11.844-4.011c2.648-2.674,3.973-6.786,3.973-12.337v-4.238c0-5.499-1.338-9.599-4.012-12.299
			c-2.674-2.698-6.61-4.049-11.806-4.049H152.826z"/>
		<path fill="#FFFFFF" d="M210.724,77.171c-5.702,0-10.154-1.614-13.358-4.843c-3.206-3.228-4.807-7.745-4.807-13.548v-2.422
			c0-2.876,0.416-5.45,1.249-7.72c0.832-2.27,2.043-4.2,3.633-5.79c1.589-1.59,3.493-2.8,5.713-3.633
			c2.221-0.833,4.743-1.249,7.569-1.249c5.701,0,10.154,1.616,13.358,4.844c3.204,3.23,4.807,7.746,4.807,13.548v2.422
			c0,2.876-0.416,5.449-1.249,7.719c-0.832,2.271-2.043,4.201-3.633,5.791c-1.589,1.589-3.508,2.8-5.752,3.633
			C216.009,76.754,213.499,77.171,210.724,77.171z M210.724,68.998c2.876,0,5.082-0.833,6.623-2.499
			c1.538-1.664,2.308-4.238,2.308-7.719v-2.422c0-3.431-0.794-5.991-2.383-7.682c-1.59-1.689-3.773-2.535-6.547-2.535
			c-2.876,0-5.084,0.833-6.623,2.498c-1.539,1.665-2.308,4.238-2.308,7.72v2.422c0,3.431,0.794,5.992,2.383,7.681
			C205.767,68.152,207.949,68.998,210.724,68.998z"/>
		<path fill="#FFFFFF" d="M239.673,73.273c-2.145-2.143-3.217-5.233-3.217-9.27V23.511h8.779v39.583
			c0,1.967,0.428,3.405,1.287,4.314c0.857,0.909,2.169,1.363,3.934,1.363h1.893v7.719h-3.482
			C244.882,76.489,241.816,75.418,239.673,73.273z"/>
		<path fill="#FFFFFF" d="M277.855,77.171c-4.744,0-8.426-1.488-11.05-4.465v18.921h-8.779v-52.98h6.886l0.833,5.147
			c1.312-1.968,2.989-3.431,5.033-4.39c2.044-0.957,4.402-1.438,7.077-1.438c2.169,0,4.175,0.392,6.017,1.173
			c1.841,0.784,3.418,1.944,4.73,3.482c1.312,1.54,2.347,3.457,3.103,5.752c0.757,2.297,1.135,4.959,1.135,7.985v2.422
			c0,3.027-0.378,5.676-1.135,7.947c-0.757,2.271-1.804,4.189-3.141,5.752c-1.337,1.565-2.914,2.738-4.73,3.519
			C282.017,76.779,280.024,77.171,277.855,77.171z M275.207,68.998c2.673,0,4.742-0.807,6.206-2.422
			c1.463-1.615,2.195-4.213,2.195-7.796v-2.422c0-3.482-0.757-6.055-2.27-7.72c-1.515-1.664-3.557-2.498-6.13-2.498
			c-2.422,0-4.403,0.833-5.942,2.498c-1.539,1.665-2.36,4.088-2.46,7.266v2.876c0,3.33,0.794,5.865,2.384,7.606
			C270.778,68.127,272.784,68.998,275.207,68.998z"/>
		<path fill="#FFFFFF" d="M300.409,23.511h8.78v18.391c2.522-2.623,6.029-3.936,10.52-3.936c4.642,0,8.261,1.375,10.861,4.125
			c2.598,2.751,3.898,6.9,3.898,12.45v21.948h-8.779V54.541c0-2.775-0.67-4.869-2.007-6.282c-1.337-1.412-3.167-2.119-5.487-2.119
			c-2.725,0-4.881,0.732-6.471,2.196c-1.59,1.464-2.435,3.405-2.535,5.827v22.326h-8.78V23.511z"/>
		<path fill="#FFFFFF" d="M348.696,34.107c-1.615,0-2.964-0.542-4.049-1.628c-1.087-1.084-1.628-2.434-1.628-4.049
			s0.541-2.964,1.628-4.05c1.084-1.084,2.434-1.627,4.049-1.627c1.563,0,2.9,0.542,4.012,1.627c1.108,1.085,1.664,2.435,1.664,4.05
			s-0.556,2.964-1.664,4.049C351.596,33.565,350.259,34.107,348.696,34.107z M344.307,38.647h8.779v37.842h-8.779V38.647z"/>
		<path fill="#FFFFFF" d="M363.302,38.647h6.888l0.681,4.238c2.824-3.279,6.735-4.92,11.73-4.92c4.642,0,8.261,1.375,10.861,4.125
			c2.598,2.751,3.898,6.9,3.898,12.45v21.948h-8.779V54.541c0-2.775-0.67-4.869-2.007-6.282c-1.337-1.412-3.167-2.119-5.487-2.119
			c-2.725,0-4.881,0.732-6.472,2.196c-1.589,1.464-2.434,3.405-2.535,5.827v22.326h-8.779V38.647z"/>
	</g>
	<path fill="#FFFFFF" d="M50,0C0,0,0,0,0,50s0,50,50,50s50,0,50-50S100,0,50,0z M70.547,52.144c0,7.695-2.176,13.686-6.527,17.974
		c-4.321,4.258-10.596,6.372-18.827,6.372H31.286c3.657-1.577,5.486-4.983,5.486-10.218v-7.947c0-2.176,0.473-3.722,1.42-4.698
		c0.978-0.947,2.113-1.515,3.468-1.735v-3.783c-1.355-0.222-2.49-0.788-3.468-1.735c-0.947-0.978-1.42-2.522-1.42-4.698v-7.949
		c0-5.234-1.829-8.64-5.486-10.217h13.906c8.326,0,14.633,2.113,18.921,6.339c4.29,4.193,6.433,10.217,6.433,18.037V52.144z"/>
</g>
</svg>
