<?xml version="1.0" encoding="utf-8"?>
<!-- Generator: Adobe Illustrator 23.0.3, SVG Export Plug-In . SVG Version: 6.00 Build 0)  -->
<svg version="1.1" id="Слой_1" xmlns="http://www.w3.org/2000/svg" xmlns:xlink="http://www.w3.org/1999/xlink" x="0px" y="0px"
	 viewBox="0 0 100 100" enable-background="new 0 0 100 100" xml:space="preserve">
<g>
	
		<linearGradient id="SVGID_1_" gradientUnits="userSpaceOnUse" x1="-289.6096" y1="1875.1997" x2="-189.6096" y2="1875.1997" gradientTransform="matrix(0 1 -1 0 1925.1997 289.6096)">
		<stop  offset="0.0056" style="stop-color:#B645EE"/>
		<stop  offset="1" style="stop-color:#9B26B6"/>
	</linearGradient>
	<path fill="url(#SVGID_1_)" d="M0,50C0,0,0,0,50,0s50,0,50,50s0,50-50,50S0,100,0,50"/>
	<path fill="#FFFFFF" d="M70.547,47.887v4.258c0,7.694-2.176,13.686-6.527,17.974c-4.321,4.258-10.596,6.372-18.827,6.372H31.286
		c3.657-1.577,5.486-4.983,5.486-10.218v-7.947c0-2.176,0.473-3.722,1.42-4.698c0.978-0.947,2.113-1.515,3.468-1.735v-3.783
		c-1.355-0.222-2.49-0.788-3.468-1.735c-0.947-0.978-1.42-2.522-1.42-4.698v-7.949c0-5.234-1.829-8.64-5.486-10.217h13.906
		c8.326,0,14.633,2.113,18.921,6.339C68.404,34.042,70.547,40.066,70.547,47.887z"/>
</g>
</svg>
